<?xml version="1.0" encoding="UTF-8"?>
<svg version="1.1" viewBox="0 0 1024 1024" width="1024" height="1024" xmlns="http://www.w3.org/2000/svg">
<path transform="translate(0)" d="m0 0h1024v1024h-1024z" fill="#FDFCFC"/>
<path transform="translate(764,334)" d="m0 0h2l-2 5-26 52-10 19-22 44-11 20-10 5-39 16-44 18-42 17-11 5 81-23 20-6 4 1-14 19-16 21-9 12-13 17-68 2h-22v3l42 6 7 2-5 5-10 9-8 7-13 11-11 9-8 7 13 2 23 2h7l8-5 6-5 7-1 10 2 9 4 2 4-3 2-15 2-1 2 1 9 4 5 4 1 16-2-1 6-7 7-10 5h-7l-6-3-8-8-8-4-16-2-85-7h-22l-9 7-8 4h-7l-12-3-7-4 1-5 20-3 2-10-4-6-7-1-15 1-1-4 8-8 9-5 3-1h8l8 5 8 7 6 3 37 4 13 1-17-12-10-7 1-4 12-16v-3h-2l-1-2-7 1-28 10-5-1-18-13-19-13-9-7v-2h40v-2l-7-1-48-15-17-5-10-9-8-8-7-8-19-19-7-8-25-25v-2l5 1 36 15 37 15 68 28 23 10 15 14-6 7-10 10 1 24 10-8 9-3 11 1 10 4 23 12-1-3-14-22-13-21 2-5 8-9 7-9 5-6 22-15 23-16 51-35 23-16 22-15 23-16 22-15 16-11 23-16 24-16 10-7z" fill="#FD6938"/>
<path transform="translate(347,103)" d="m0 0h21l16 4 15 8 13 12 9 12 6 13 3 12v23l-3 13-8 16-11 12-9 8-12 7-12 4-6 1h-23l-12-3-10-4-13-9-12-12-8-13-5-14-1-6v-22l3-13 8-16 11-13 14-11 13-6z" fill="#FDFCFC"/>
<path transform="translate(663,93)" d="m0 0 18 1 15 4 14 7 14 11 10 11 8 14 6 18v5h-120v-10h108l-8-17-7-9-8-8-11-7-13-6-15-3h-15l-17 4-15 8-13 12-7 8-7 12-4 12-1 6v21l3 13 8 16 9 10 7 7 13 8 13 5 15 2 17-1 14-4 13-7 9-7 3-4 4 1 5 4-2 4-16 12-16 8-17 4h-23l-16-4-16-8-11-9-8-8-9-13-6-13-3-10-1-7v-21l4-17 8-16 9-12 8-8 10-7 16-8 13-3z"/>
<path transform="translate(349,93)" d="m0 0h17l16 3 12 5 10 6 10 8 7 7 9 13 6 13 4 16v23l-4 17-8 16-9 11-9 9-14 9-11 5-11 3-7 1h-20l-14-3-12-5-12-7-13-12-8-10-8-15-4-14-1-6v-21l3-14 5-12 7-12 11-12 8-7 13-8 15-5zm-2 10-15 4-14 7-13 11-9 11-8 16-3 13v22l3 12 5 12 8 11 11 11 14 9 14 5 6 1h23l12-3 12-5 11-8 12-12 7-11 5-12 2-10v-23l-4-15-7-13-8-10-7-7-10-7-13-6-13-3z"/>
<path transform="translate(773,96)" d="m0 0h15l11 12 9 9 7 8 15 15 7 8 11 11 6 7 3-1 7-8 11-11 7-8 12-12 7-8 8-8 7-8 6-6h15l-6 7-12 12-7 8-22 22-7 8-20 20 2 4 31 33 12 13 15 16 13 14 1 3h-11l-7-6-7-8-8-8-7-8-9-9-7-8-15-16-8-8-2-3-4 2-14 15-12 13-7 7-7 8-16 17-10 11-4 1h-9l2-4 11-12 14-15 12-13 15-16 16-17 3-3-1-4-14-15-18-18-7-8-22-22-7-8-4-3z"/>
<path transform="translate(168,94)" d="m0 0h19l16 3 12 5 11 6 12 11 1 4-3 1-2 4-4-2-10-8-14-8-12-4-6-1h-21l-15 4-15 8-13 12-9 13-5 11-3 13v21l4 15 7 14 11 13 12 9 13 6 11 3 18 1 14-2 13-5 12-7 7-6 2-3 4 1 4 4-2 4-9 8-13 8-12 5-14 3h-23l-16-4-16-8-10-8-10-10-9-14-5-11-4-15v-25l5-17 8-15 8-10 10-10 14-9 12-5z"/>
<path transform="translate(553,93)" d="m0 0h10v9l-1 1-15 2-13 4-12 7-12 11-8 10-7 15-3 12-1 91-4 1-6-1v-90l3-15 5-12 9-14 13-13 10-7 14-7z"/>
<path transform="translate(448,564)" d="m0 0h3v5l-4 2-1-4z" fill="#FD6938"/>
</svg>
