<?xml version="1.0" encoding="UTF-8"?>
<svg version="1.1" viewBox="0 0 2048 1309" width="923" height="590" xmlns="http://www.w3.org/2000/svg">
<path transform="translate(0)" d="m0 0h2048v1309h-2048z" fill="#FDFDFD"/>
<path transform="translate(1586,550)" d="m0 0 3 1-8 16-12 23-11 22-10 19-37 74-8 15-24 48-10 19-20 40-10 19-8 15-10 5-37 15-41 17-83 34-130 53-24 10-16 6 7-1 69-20 163-46 10-3v3l-8 11-13 18-16 21-14 19-16 21-24 32-10 13-12 16-2 1-11 1-116 3-53 1-17 1-1 5 3 2 38 6 63 9 3 1-2 4-11 10-11 9-10 9-8 7-10 9-11 9-14 12-10 9-11 9-14 12-13 10 36 4 45 4h18l7-3 10-6 10-10 8-4 4-1h13l17 4 15 6 8 5 1 5-6 4-33 5-3 3-1 4v11l4 10 7 8 6 3 12-1 21-3h7v6l-8 11-8 8-14 9-6 3h-25l-10-7-16-16-10-6-13-4-24-3-195-16-21-1h-25l-8 4-12 11-10 7-12 4h-9l-16-3-16-5-10-5-5-5-1-5 2-2 24-4 17-3 5-3 4-9 1-4v-8l-6-10-6-5-2-1h-10l-27 4h-8l-2-4 1-5 7-8 10-9 16-10 13-4h12l11 4 9 6 12 13 13 8 9 3 30 4 74 7h7l-18-13-19-14-18-13-7-6 2-4 10-14 10-13 8-11-2-5-7-7h-8l-70 26-6-1-17-12-18-13-19-13-15-11-20-14-12-8-6-5v-2l69-2h23v-2l-12-3-47-15-47-14-54-17-8-5-33-33-7-8-20-20-7-8-21-21-7-8-11-11-7-8-18-18-7-8-23-23-2-4 6 1 25 11 37 15 49 20 78 32 75 31 49 20 41 17 16 8 10 9 8 7 14 14-2 4-33 33v25l1 29h3l14-12 11-7 12-4 5-1h11l18 4 15 6 35 18 20 11h2l-12-19-16-25-12-19-15-24-11-18 1-5 12-14 9-11 11-14 8-10 10-10 16-11 23-16 19-13 20-14 19-13 22-15 20-14 35-24 23-16 12-8 23-16 16-11 23-16 19-13 22-15 16-11 23-16 19-13 23-16 47-32 20-14 22-15 16-11 41-28 23-16 18-12 14-10z" fill="#F37248"/>
<path transform="translate(676,37)" d="m0 0h12l22 2 21 5 16 6 19 10 14 10 13 11 10 10 11 14 10 15 9 19 6 18 4 20 1 12v20l-2 17-4 19-6 17-8 16-9 14-9 11-12 13-8 7-13 10-15 9-17 8-20 6-15 3-9 1h-27l-18-2-20-5-20-8-19-11-14-11-12-11-7-7-13-17-8-13-8-17-6-18-3-16-1-9v-31l3-21 5-17 8-18 9-16 9-12 12-14 7-7 14-11 13-9 14-8 15-6 19-5 13-2z" fill="#FDFDFD"/>
<path transform="translate(1358,16)" d="m0 0h15l17 1 18 3 19 5 17 7 17 9 12 8 13 10 12 11 11 11 11 15 8 13 11 23 8 25 3 12v3l-4 1h-256l-8-1v-21l1-1h239l-9-21-9-17-10-14-11-12-11-10-15-11-16-9-18-8-21-6-21-3h-26l-20 3-21 6-19 9-14 9-14 11-12 11-8 8-11 14-9 14-8 16-7 19-4 23-1 11v16l3 23 5 19 6 16 9 16 10 14 11 12 14 14 13 10 19 11 16 7 21 6 15 2 14 1h11l22-2 21-5 16-6 19-10 14-10 12-11 8-8 3-1 8 7 7 7-2 4-11 10-20 15-20 12-15 7-20 7-25 5-9 1h-33l-21-3-21-6-18-8-17-9-11-8-10-8-13-12-11-12-13-17-9-15-8-17-7-21-4-19-2-22 1-26 4-24 5-17 9-21 10-17 12-16 9-10 16-16 13-10 16-10 16-8 15-6 20-5 14-2z" fill="#020102"/>
<path transform="translate(662,16)" d="m0 0h38l22 3 22 6 20 9 14 8 14 10 10 8 15 14 7 8 12 16 10 17 8 17 6 19 4 18 2 19v22l-3 24-4 17-7 20-11 21-12 17-11 13-17 17-19 14-18 10-18 8-20 6-15 3-23 2h-14l-22-2-19-4-18-6-21-10-14-9-13-10-13-12-10-10-11-14-7-10-8-14-7-15-6-18-5-24-1-8v-34l4-25 4-15 8-20 9-17 12-17 9-11 20-20 13-10 18-11 16-8 17-6 17-4zm14 21-21 2-21 5-14 5-16 8-12 8-13 10-13 12-9 10-11 15-9 16-8 18-5 17-3 21v31l3 20 5 18 7 16 7 13 10 14 11 13 11 11 14 11 14 9 16 8 16 6 17 4 18 2h27l20-3 21-6 12-5 17-9 14-10 11-10 7-6 7-8 10-12 11-18 7-16 5-15 4-22 1-11v-20l-2-19-5-20-7-18-9-17-10-14-12-14-10-10-17-13-15-9-17-8-20-6-17-3-15-1z" fill="#020102"/>
<path transform="translate(1604,21)" d="m0 0h28l5 2 9 9 7 8 13 13 7 8 10 10 7 8 11 11 7 8 18 18 7 8 14 14 7 8 12 12 7 8 12 13h2l7-8 11-11 7-8 11-11 7-8 15-15 7-8 11-11 7-8 11-11 7-8 8-8 7-8 16-17 8-8 7-8 4-2h31l-2 4-35 35-7 8-13 13-7 8-17 17-7 8-39 39-7 8-14 14-1 2h-2v2h-2l-2 4-12 12 6 7 12 13 7 7 7 8 8 8 7 8 9 9 7 8 15 16 12 13 30 32 11 12 10 10 7 8 13 14 5 7v2l-16-1h-10l-8-7-7-8-31-33-12-13-8-8-7-8-9-9-7-8-15-16-12-13-16-17-11-12-12-12-5 2-11 12-14 15-12 13-14 15-9 10-10 10-7 8-7 7-7 8-12 12-7 8-30 32-10 11-2 1h-27l2-4 7-8 13-13 7-8 7-7 7-8 7-7 7-8 15-16 11-12 15-16 7-7 7-8 9-9 7-8 8-8 7-8 9-9 14-16-2-4-27-27-7-8-27-27-7-8-14-14-7-8-21-21-7-8-21-21-7-8-14-14-5-4z" fill="#020102"/>
<path transform="translate(264,18)" d="m0 0h38l21 3 17 4 21 8 19 10 12 8 10 8 10 9 7 7 1 6-6 4-6 8-4-1-10-9-16-12-14-9-17-9-19-7-18-4-21-2h-12l-20 2-19 4-18 7-17 9-14 10-14 12-9 9-9 11-9 13-11 21-6 17-5 21-1 9v31l3 19 6 21 8 18 7 12 10 13 9 10 7 8 11 9 12 9 16 9 18 8 19 5 14 2 14 1h12l22-2 21-5 19-7 16-9 14-10 10-9 10-10 5 1 4 4v2l4 2 4 4-2 4-9 9-14 11-18 12-21 11-19 7-22 5-16 2h-33l-21-3-21-6-18-8-15-8-17-12-11-10-8-7-12-13-14-19-11-20-8-21-6-22-2-15v-37l2-15 8-28 8-18 10-18 12-16 9-10 7-8 11-10 16-12 21-12 19-8 19-5z" fill="#020102"/>
<path transform="translate(1134,14)" d="m0 0 5 1v20l-4 2-22 2-25 6-15 6-17 9-15 11-14 12-13 14-11 16-8 14-7 16-6 19-3 20-1 65-1 129h-21v-191l3-24 4-17 6-17 8-16 9-15 10-13 9-10 13-13 17-13 16-10 16-8 12-5 23-6z" fill="#020102"/>
<path transform="translate(886,1060)" d="m0 0h4v8l-3 5-2 2-6-1-1-4 6-9z" fill="#F37248"/>
</svg>
